<?xml version="1.0" encoding="UTF-8" standalone="no"?>
<!DOCTYPE svg PUBLIC "-//W3C//DTD SVG 1.1//EN" "http://www.w3.org/Graphics/SVG/1.1/DTD/svg11.dtd">
<svg xmlns="http://www.w3.org/2000/svg" xmlns:xlink="http://www.w3.org/1999/xlink">
<symbol id="github" viewBox="0 0 24 24"><path fill-rule="evenodd" d="M8 0C3.58 0 0 3.58 0 8c0 3.54 2.29 6.53 5.47 7.59 .4.07.55-.17.55-.38 0-.19-.01-.82-.01-1.49 -2.01.37-2.53-.49-2.69-.94 -.09-.23-.48-.94-.82-1.13 -.28-.15-.68-.52-.01-.53 .63-.01 1.08.58 1.23.82 .72 1.21 1.87.87 2.33.66 .07-.52.28-.87.51-1.07 -1.78-.2-3.64-.89-3.64-3.95 0-.87.31-1.59.82-2.15 -.08-.2-.36-1.02.08-2.12 0 0 .67-.21 2.2.82 .64-.18 1.32-.27 2-.27 .68 0 1.36.09 2 .27 1.53-1.04 2.2-.82 2.2-.82 .44 1.1.16 1.92.08 2.12 .51.56.82 1.27.82 2.15 0 3.07-1.87 3.75-3.65 3.95 .29.25.54.73.54 1.48 0 1.07-.01 1.93-.01 2.2 0 .21.15.46.55.38l-.01 0c3.25-1.1 5.44-4.16 5.45-7.59 0-4.42-3.58-8-8-8Z" transform="scale(1.5)"/></symbol>
<symbol id="linkedin" viewBox="0 0 24 24"><g transform="scale(1.14285) rotate(.01978)"><g transform="translate(-63 0)"><g fill="none" fill-rule="evenodd"><path d="M82.479 0H64.583c-.86 0-1.59.67-1.59 1.511v17.97c0 .83.47 1.51 1.33 1.51h17.896c.85 0 1.77-.68 1.77-1.52V1.49c0-.84-.67-1.52-1.53-1.52"/><path fill="#000" d="M82.479 0H64.583c-.86 0-1.59.67-1.59 1.511v17.97c0 .83.47 1.51 1.33 1.51h17.896c.85 0 1.77-.68 1.77-1.52V1.49c0-.84-.67-1.52-1.53-1.52ZM71 8h2.82v1.44h.03c.43-.78 1.7-1.57 3.27-1.57 3.02 0 3.86 1.6 3.86 4.57v5.55h-3V12.98c0-1.33-.54-2.497-1.78-2.497 -1.51 0-2.23 1.02-2.23 2.69v4.8h-3v-10Zm-5 10h3V8h-3v10Zm3.37-13.5s0 0 0 0c0 1.02-.85 1.87-1.88 1.87 -1.03 0-1.88-.85-1.88-1.88 0 0 0 0 0 0 0-1.03.84-1.88 1.87-1.88 1.02 0 1.87.84 1.87 1.874Z"/></g></g></g></symbol>
<symbol id="microblog" viewBox="0 0 24 24"><g transform="translate(.09856 0) scale(.04928)"><path d="M495.79 372.06c32-37.64 51.11-85 51.11-136.5C546.9 113 438.82 13.72 305.5 13.72 172.18 13.72 64.1 113 64.1 235.56c0 122.56 108.08 221.84 241.4 221.84 29.35.04 58.49-4.89 86.2-14.58 3.21-1.11 6.8.02 8.81 2.77 20.17 27.23 51.67 46.38 86.7 54.17 .32.06.64.1.97.1 2.62 0 4.79-2.17 4.79-4.79 0-1.08-.37-2.12-1.03-2.96 -27.52-35.69-25.84-86.34 4-120.11l-.16.06ZM420 209.48l-62.17 47.19 22.56 74.72c.2.66.3 1.35.3 2.04 0 3.87-3.19 7.06-7.06 7.06 -1.45 0-2.85-.45-4.04-1.27l-64.1-44.55 -64.09 44.55c-1.19.82-2.6 1.26-4.04 1.26 -3.88 0-7.06-3.19-7.06-7.06 0-.7.1-1.39.3-2.05l22.56-74.72 -62.18-47.19c-1.76-1.34-2.79-3.42-2.79-5.63 0-3.82 3.09-6.98 6.9-7.06l78-1.63 25.67-73.71c.98-2.83 3.67-4.74 6.66-4.74s5.67 1.9 6.66 4.73l25.67 73.71 78 1.63c3.84.03 6.99 3.21 6.99 7.06 0 2.2-1.04 4.28-2.79 5.62Z" transform="translate(-64.1-13.72)"/></g></symbol>
<symbol id="orcid" viewBox="0 0 24 24"><path fill-rule="evenodd" d="M128 0c70.64 0 128 57.355 128 128 0 70.64-57.36 128-128 128C57.35 256 0 198.64 0 128 0 57.35 57.355 0 128 0Zm-19.1 79.1h41.6c39.6 0 57 28.3 57 53.6 0 27.5-21.5 53.6-56.8 53.6h-41.8V79.1ZM86.3 186.2H70.9V79.1h15.4v107.1Zm38-13.8h24.5c34.9 0 42.9-26.5 42.9-39.7C191.7 111.2 178 93 148 93h-23.7v79.4ZM88.7 56.8c0 5.5-4.5 10.1-10.1 10.1s-10.1-4.6-10.1-10.1c0-5.6 4.5-10.1 10.1-10.1s10.1 4.6 10.1 10.1Z" transform="scale(.09375)"/></symbol>
<symbol id="default" viewBox="0 0 24 24"><g transform="scale(.5)"><path d="M24 24c4.42 0 8-3.59 8-8 0-4.42-3.58-8-8-8s-8 3.58-8 8c0 4.41 3.58 8 8 8Zm0 4c-5.33 0-16 2.67-16 8v4h32v-4c0-5.33-10.67-8-16-8Z"/><path fill="none" d="M0 0h48v48H0Z"/></g></symbol>
<symbol id="stackoverflow" viewBox="0 0 24 24"><g transform="translate(1.89873 0) scale(.15189)"><g transform="translate(0-.00134)"><g transform="matrix(.133333 0 0-.133333 0 157.16)"><g><path d="M840.719 105.18v315.51h105.16V-.01H-.01V420.69H105.16V105.17h735.55"/><path d="M210.445 210.359h525.82v105.16H210.43v-105.17Zm471.266 968.33l-84.39-62.76 313.817-421.92 84.38 62.76 -313.82 421.91ZM420.879 929.93L824.91 593.43l67.3 80.81 -404.05 336.5 -67.31-80.82Zm-131.91-233.85l476.664-222 44.39 95.33L333.35 791.4l-44.4-95.332Zm-68.09-246.4l514.58-108.15 21.62 102.91 -514.59 108.14 -21.63-102.92"/></g></g></g></g></symbol>
<symbol id="twitter" viewBox="0 0 24 24"><g transform="translate(0 2.23252) scale(.07999)"><path d="M633.89 812.04c112.46 0 173.95-93.17 173.95-173.96 0-2.65-.06-5.29-.18-7.91 11.93-8.64 22.31-19.4 30.49-31.66 -10.96 4.86-22.75 8.14-35.12 9.62 12.62-7.57 22.31-19.55 26.88-33.82 -11.82 7-24.9 12.09-38.83 14.84 -11.16-11.89-27.05-19.32-44.63-19.32 -33.77 0-61.15 27.38-61.15 61.13 0 4.79.53 9.46 1.58 13.94 -50.82-2.56-95.88-26.89-126.03-63.88 -5.26 9.03-8.28 19.53-8.28 30.73 0 21.21 10.79 39.93 27.2 50.89 -10.04-.31-19.46-3.07-27.7-7.65 -.01.25-.01.5-.01.78 0 29.6 21.07 54.33 49.05 59.93 -5.14 1.4-10.55 2.15-16.13 2.15 -3.94 0-7.77-.39-11.5-1.11 7.78 24.29 30.35 41.97 57.11 42.46 -20.93 16.4-47.29 26.17-75.94 26.17 -4.93 0-9.8-.29-14.59-.85 27.05 17.34 59.18 27.46 93.72 27.46" transform="translate(-539.179-568.858)"/></g></symbol>
<symbol id="xing" viewBox="0 0 24 24"><g transform="scale(.04439)"><g><path d="M129.989 378.772c8.27 0 15.36-5.01 21.24-15.04 53.81-95.423 81.8-145.093 83.99-149.03l-53.6-93.458c-5.67-9.81-12.86-14.71-21.57-14.71H81.93c-5.02 0-8.5 1.63-10.46 4.9 -2.4 3.26-2.29 7.3.32 12.08l52.613 91.17c.21.23.21.33 0 .33L41.73 361.424c-2.18 4.14-2.18 8.06 0 11.75 2.17 3.71 5.55 5.56 10.12 5.56h78.11Z"/><path d="M488.49 0h-78.76c-8.5 0-15.48 4.902-20.92 14.7 -111.769 198.263-169.616 300.88-173.54 307.848l110.78 203.28c5.22 9.8 12.41 14.7 21.56 14.7h78.1c4.79 0 8.28-1.64 10.45-4.91 2.17-3.72 2.06-7.75-.33-12.1l-109.8-200.99v-.32L498.58 16.96c2.39-4.58 2.39-8.6 0-12.09 -1.97-3.28-5.35-4.91-10.14-4.91Z"/></g></g></symbol>
<use xlink:href="#github" x="0" y="0" width="24" height="24"/>
<use xlink:href="#linkedin" x="0" y="24" width="24" height="24"/>
<use xlink:href="#microblog" x="0" y="48" width="24" height="24"/>
<use xlink:href="#orcid" x="0" y="72" width="24" height="24"/>
<use xlink:href="#default" x="0" y="96" width="24" height="24"/>
<use xlink:href="#stackoverflow" x="0" y="120" width="24" height="24"/>
<use xlink:href="#twitter" x="0" y="144" width="24" height="24"/>
<use xlink:href="#xing" x="0" y="168" width="24" height="24"/>
<view id="social-github" viewBox="0 0 24 24"/>
<view id="social-linkedin" viewBox="0 24 24 24"/>
<view id="social-microblog" viewBox="0 48 24 24"/>
<view id="social-orcid" viewBox="0 72 24 24"/>
<view id="social-default" viewBox="0 96 24 24"/>
<view id="social-stackoverflow" viewBox="0 120 24 24"/>
<view id="social-twitter" viewBox="0 144 24 24"/>
<view id="social-xing" viewBox="0 168 24 24"/>
</svg>