<?xml version="1.0" encoding="UTF-8" standalone="no"?>
<!DOCTYPE svg PUBLIC "-//W3C//DTD SVG 1.1//EN" "http://www.w3.org/Graphics/SVG/1.1/DTD/svg11.dtd">
<svg width="100%" height="100%" viewBox="0 0 24 24" version="1.1" xmlns="http://www.w3.org/2000/svg" xmlns:xlink="http://www.w3.org/1999/xlink" xml:space="preserve" xmlns:serif="http://www.serif.com/" style="fill-rule:evenodd;clip-rule:evenodd;stroke-linejoin:round;stroke-miterlimit:2;">
    <rect id="github" x="0" y="0" width="23.985" height="24" style="fill:none;"/>
    <clipPath id="_clip1">
        <rect x="0" y="0" width="23.985" height="24"/>
    </clipPath>
    <g clip-path="url(#_clip1)">
        <g id="github1" serif:id="github">
            <path d="M12.008,0.318c-6.631,-0 -12.001,5.37 -12.001,12c0,5.31 3.435,9.795 8.205,11.385c0.6,0.105 0.825,-0.255 0.825,-0.57c0,-0.285 -0.014,-1.23 -0.014,-2.235c-3.016,0.555 -3.796,-0.735 -4.036,-1.41c-0.135,-0.345 -0.72,-1.41 -1.23,-1.695c-0.42,-0.225 -1.02,-0.78 -0.015,-0.795c0.945,-0.015 1.62,0.87 1.845,1.23c1.08,1.815 2.805,1.305 3.496,0.99c0.105,-0.78 0.42,-1.305 0.764,-1.605c-2.669,-0.3 -5.459,-1.335 -5.459,-5.925c-0,-1.305 0.465,-2.385 1.23,-3.225c-0.12,-0.3 -0.54,-1.53 0.12,-3.18c-0,-0 1.005,-0.315 3.3,1.23c0.96,-0.27 1.98,-0.405 3,-0.405c1.02,-0 2.04,0.135 3,0.405c2.295,-1.56 3.3,-1.23 3.3,-1.23c0.66,1.65 0.24,2.88 0.12,3.18c0.764,0.84 1.23,1.905 1.23,3.225c-0,4.605 -2.805,5.625 -5.476,5.925c0.435,0.375 0.81,1.095 0.81,2.22c0,1.605 -0.015,2.895 -0.015,3.3c0,0.315 0.225,0.69 0.825,0.57l-0.014,-0c4.874,-1.65 8.159,-6.24 8.175,-11.385c-0.001,-6.63 -5.371,-12 -12.001,-12l0.015,-0Z"/>
        </g>
    </g>
</svg>
