<?xml version="1.0" encoding="UTF-8" standalone="no"?>
<!DOCTYPE svg PUBLIC "-//W3C//DTD SVG 1.1//EN" "http://www.w3.org/Graphics/SVG/1.1/DTD/svg11.dtd">
<svg width="100%" height="100%" viewBox="0 0 24 25" version="1.1" xmlns="http://www.w3.org/2000/svg" xmlns:xlink="http://www.w3.org/1999/xlink" xml:space="preserve" xmlns:serif="http://www.serif.com/" style="fill-rule:evenodd;clip-rule:evenodd;stroke-linejoin:round;stroke-miterlimit:2;">
    <rect id="linkedin" x="0" y="0.296" width="24.004" height="24.032" style="fill:none;"/>
    <clipPath id="_clip1">
        <rect x="0" y="0.296" width="24.004" height="24.032"/>
    </clipPath>
    <g clip-path="url(#_clip1)">
        <g id="linkedin1" serif:id="linkedin">
            <g>
                <g>
                    <g>
                        <path d="M22.365,1.325l-20.452,-0.007c-0.983,-0 -1.817,0.765 -1.818,1.726l-0.007,20.537c-0,0.949 0.537,1.726 1.52,1.727l20.452,0.007c0.971,0 2.023,-0.777 2.023,-1.737l0.007,-20.549c0.001,-0.96 -0.765,-1.738 -1.747,-1.738" style="fill:none;"/>
                        <path d="M22.365,1.325l-20.452,-0.007c-0.983,-0 -1.817,0.765 -1.818,1.726l-0.007,20.537c-0,0.949 0.537,1.726 1.52,1.727l20.452,0.007c0.971,0 2.023,-0.777 2.023,-1.737l0.007,-20.549c0.001,-0.96 -0.765,-1.738 -1.747,-1.738l0.022,0.034Zm-13.122,9.138l3.223,0.002l-0,1.645l0.034,0c0.492,-0.891 1.943,-1.793 3.738,-1.793c3.451,0.002 4.411,1.83 4.409,5.225l-0.002,6.343l-3.428,-0.002l0.002,-5.725c0,-1.52 -0.617,-2.854 -2.034,-2.855c-1.725,-0 -2.549,1.165 -2.549,3.074l-0.002,5.485l-3.429,-0.001l0.004,-11.428l0.034,0.03Zm-5.718,11.427l3.429,0.001l0.004,-11.428l-3.429,-0.001l-0.004,11.428Zm3.857,-15.427c-0,1.166 -0.972,2.137 -2.149,2.136c-1.177,-0 -2.149,-0.972 -2.148,-2.149c0,-1.177 0.961,-2.148 2.138,-2.148c1.165,0.001 2.137,0.961 2.136,2.143l0.023,0.018Z"/>
                    </g>
                </g>
            </g>
        </g>
    </g>
</svg>
