<?xml version="1.0" encoding="UTF-8" standalone="no"?>
<!DOCTYPE svg PUBLIC "-//W3C//DTD SVG 1.1//EN" "http://www.w3.org/Graphics/SVG/1.1/DTD/svg11.dtd">
<svg width="100%" height="100%" viewBox="0 0 24 25" version="1.1" xmlns="http://www.w3.org/2000/svg" xmlns:xlink="http://www.w3.org/1999/xlink" xml:space="preserve" xmlns:serif="http://www.serif.com/" style="fill-rule:evenodd;clip-rule:evenodd;stroke-linejoin:round;stroke-miterlimit:2;">
    <rect id="microblog" x="0" y="0.296" width="24" height="23.957" style="fill:none;"/>
    <clipPath id="_clip1">
        <rect x="0" y="0.296" width="24" height="23.957"/>
    </clipPath>
    <g clip-path="url(#_clip1)">
        <g id="microblog1" serif:id="microblog">
            <g>
                <path d="M21.377,17.955c1.577,-1.855 2.519,-4.189 2.519,-6.727c0,-6.039 -5.326,-10.932 -11.896,-10.932c-6.57,0 -11.896,4.893 -11.896,10.932c-0,6.04 5.326,10.933 11.896,10.933c1.446,0.002 2.882,-0.241 4.248,-0.719c0.158,-0.055 0.335,0.001 0.434,0.137c0.994,1.341 2.546,2.285 4.273,2.669c0.015,0.003 0.031,0.005 0.047,0.005c0.13,0 0.237,-0.107 0.237,-0.236c-0,-0.053 -0.019,-0.105 -0.051,-0.146c-1.356,-1.759 -1.274,-4.255 0.197,-5.919l-0.008,0.003l0,0Zm-3.734,-8.012l-3.064,2.326l1.112,3.682c0.009,0.032 0.014,0.066 0.014,0.1c0,0.191 -0.157,0.348 -0.348,0.348c-0.071,0 -0.14,-0.022 -0.199,-0.062l-3.158,-2.196l-3.159,2.196c-0.058,0.04 -0.128,0.062 -0.199,0.062c-0.191,-0 -0.348,-0.157 -0.348,-0.348c0,-0.035 0.005,-0.069 0.015,-0.101l1.112,-3.682l-3.065,-2.326c-0.086,-0.066 -0.137,-0.168 -0.137,-0.277c-0,-0.189 0.152,-0.344 0.34,-0.348l3.844,-0.081l1.265,-3.632c0.048,-0.139 0.181,-0.234 0.328,-0.234c0.147,0 0.279,0.094 0.328,0.233l1.265,3.633l3.844,0.08c0.189,0.002 0.345,0.158 0.345,0.348c-0,0.109 -0.052,0.211 -0.138,0.277l0.003,0.002Z" style="fill-rule:nonzero;"/>
            </g>
        </g>
    </g>
</svg>
