<?xml version="1.0" encoding="UTF-8" standalone="no"?>
<!DOCTYPE svg PUBLIC "-//W3C//DTD SVG 1.1//EN" "http://www.w3.org/Graphics/SVG/1.1/DTD/svg11.dtd">
<svg width="100%" height="100%" viewBox="0 0 25 25" version="1.1" xmlns="http://www.w3.org/2000/svg" xmlns:xlink="http://www.w3.org/1999/xlink" xml:space="preserve" xmlns:serif="http://www.serif.com/" style="fill-rule:evenodd;clip-rule:evenodd;stroke-linejoin:round;stroke-miterlimit:2;">
    <rect id="stackoverflow" x="0.104" y="0.318" width="24" height="24" style="fill:none;"/>
    <g id="stackoverflow1" serif:id="stackoverflow">
        <g>
            <g>
                <g>
                    <g>
                        <path d="M19.05,22.123l-0,-6.39l2.129,0l0,8.52l-19.156,0l0,-8.52l2.13,0l0,6.39l14.896,-0" style="fill-rule:nonzero;"/>
                        <path d="M6.285,19.993l10.649,-0l0,-2.13l-10.649,-0l-0,2.13l0,-0Zm9.544,-19.611l-1.709,1.271l6.356,8.545l1.708,-1.271l-6.355,-8.545l0,0Zm-5.282,5.038l8.182,6.815l1.363,-1.637l-8.182,-6.815l-1.364,1.637l0.001,-0Zm-2.671,4.736l9.653,4.496l0.899,-1.931l-9.654,-4.496l-0.899,1.931l0.001,-0Zm-1.379,4.99l10.421,2.19l0.438,-2.084l-10.422,-2.19l-0.438,2.084" style="fill-rule:nonzero;"/>
                    </g>
                </g>
            </g>
        </g>
    </g>
</svg>
